# xmcd
#
# Track frame offsets: 
#        150
#        11970
#        21999
#        31299
#        41124
#        52002
#        62502
#        72064
#        84139
#        94339
#        105851
#        118901
#        129626
#        139998
#        169807
#
# Disc length: 3283 seconds
#
# Revision: 2
# Processed by: cddbd v1.5.2PL0 Copyright (c) Steve Scherf et al.
# Submitted via: ExactAudioCopy v0.99pb5
#
DISCID=ce0cd10f
DTITLE=Mars Attacks - Follow me
DYEAR=2008
DGENRE=Rock-a-billy
TTITLE0=Follow me
TTITLE1=In vain
TTITLE2=Awful bad at beeing good
TTITLE3=The proof
TTITLE4=Go cat go
TTITLE5=Next time
TTITLE6=Praying for rain
TTITLE7=Got the water boiling
TTITLE8=Not only in dreams
TTITLE9=You only like the fast songs
TTITLE10=Full moon rock
TTITLE11=Give me the answer
TTITLE12=Nice Mr. Heavyweight
TTITLE13=Jazz attacks
TTITLE14=Daten-CD
EXTD=
EXTT0=
EXTT1=
EXTT2=
EXTT3=
EXTT4=
EXTT5=
EXTT6=
EXTT7=
EXTT8=
EXTT9=
EXTT10=
EXTT11=
EXTT12=
EXTT13=
EXTT14=
PLAYORDER=
